{
    "asset" : {
        "generator" : "Khronos glTF Blender I/O v1.7.33",
        "version" : "2.0"
    },
    "scene" : 0,
    "scenes" : [
        {
            "name" : "Scene",
            "nodes" : [
                0,
                1
            ]
        }
    ],
    "nodes" : [
        {
            "mesh" : 0,
            "name" : "Right",
            "rotation" : [
                0.7071068286895752,
                0,
                0,
                0.7071068286895752
            ],
            "scale" : [
                2.197960615158081,
                2.197960615158081,
                2.197960615158081
            ]
        },
        {
            "mesh" : 1,
            "name" : "Left",
            "rotation" : [
                0.7071068286895752,
                0,
                0,
                0.7071068286895752
            ],
            "scale" : [
                2.197960615158081,
                2.197960615158081,
                2.197960615158081
            ]
        }
    ],
    "materials" : [
        {
            "doubleSided" : true,
            "name" : "Material",
            "pbrMetallicRoughness" : {
                "baseColorFactor" : [
                    0.04050884395837784,
                    0.09533464163541794,
                    0.8000000715255737,
                    1
                ],
                "metallicFactor" : 0.2368421107530594,
                "roughnessFactor" : 0.08421054482460022
            }
        },
        {
            "doubleSided" : true,
            "name" : "Material.001",
            "pbrMetallicRoughness" : {
                "baseColorFactor" : [
                    0.04084484651684761,
                    0.04084484651684761,
                    0.04084484651684761,
                    1
                ],
                "metallicFactor" : 0.3552631735801697,
                "roughnessFactor" : 0.09210526943206787
            }
        }
    ],
    "meshes" : [
        {
            "name" : "Circle",
            "primitives" : [
                {
                    "attributes" : {
                        "POSITION" : 0,
                        "NORMAL" : 1,
                        "TEXCOORD_0" : 2
                    },
                    "indices" : 3,
                    "material" : 0
                }
            ]
        },
        {
            "name" : "Circle.001",
            "primitives" : [
                {
                    "attributes" : {
                        "POSITION" : 4,
                        "NORMAL" : 5,
                        "TEXCOORD_0" : 6
                    },
                    "indices" : 7,
                    "material" : 1
                }
            ]
        }
    ],
    "accessors" : [
        {
            "bufferView" : 0,
            "componentType" : 5126,
            "count" : 2826,
            "max" : [
                0.9934976100921631,
                -8.486265869578347e-05,
                0.9976288676261902
            ],
            "min" : [
                0.04020356386899948,
                -0.1659548580646515,
                -0.9976302981376648
            ],
            "type" : "VEC3"
        },
        {
            "bufferView" : 1,
            "componentType" : 5126,
            "count" : 2826,
            "type" : "VEC3"
        },
        {
            "bufferView" : 2,
            "componentType" : 5126,
            "count" : 2826,
            "type" : "VEC2"
        },
        {
            "bufferView" : 3,
            "componentType" : 5123,
            "count" : 16944,
            "type" : "SCALAR"
        },
        {
            "bufferView" : 4,
            "componentType" : 5126,
            "count" : 2826,
            "max" : [
                -0.04020357131958008,
                -8.547306060791016e-05,
                0.9998924136161804
            ],
            "min" : [
                -0.9934976100921631,
                -0.16595560312271118,
                -0.9953667521476746
            ],
            "type" : "VEC3"
        },
        {
            "bufferView" : 5,
            "componentType" : 5126,
            "count" : 2826,
            "type" : "VEC3"
        },
        {
            "bufferView" : 6,
            "componentType" : 5126,
            "count" : 2826,
            "type" : "VEC2"
        },
        {
            "bufferView" : 7,
            "componentType" : 5123,
            "count" : 16944,
            "type" : "SCALAR"
        }
    ],
    "bufferViews" : [
        {
            "buffer" : 0,
            "byteLength" : 33912,
            "byteOffset" : 0
        },
        {
            "buffer" : 0,
            "byteLength" : 33912,
            "byteOffset" : 33912
        },
        {
            "buffer" : 0,
            "byteLength" : 22608,
            "byteOffset" : 67824
        },
        {
            "buffer" : 0,
            "byteLength" : 33888,
            "byteOffset" : 90432
        },
        {
            "buffer" : 0,
            "byteLength" : 33912,
            "byteOffset" : 124320
        },
        {
            "buffer" : 0,
            "byteLength" : 33912,
            "byteOffset" : 158232
        },
        {
            "buffer" : 0,
            "byteLength" : 22608,
            "byteOffset" : 192144
        },
        {
            "buffer" : 0,
            "byteLength" : 33888,
            "byteOffset" : 214752
        }
    ],
    "buffers" : [
        {
            "byteLength" : 248640,
            "uri" : "data:application/octet-stream;base64,"
        }
    ]
}
